<svg width="17" height="16" viewBox="0 0 17 16" fill="none" xmlns="http://www.w3.org/2000/svg">
<path d="M5.83301 5.99967C5.83301 5.63301 5.53301 5.33301 5.16634 5.33301H3.89301C4.81301 3.73967 6.53301 2.66634 8.49967 2.66634C10.8263 2.66634 12.7997 4.15967 13.5263 6.23967C13.6197 6.49967 13.8797 6.66634 14.153 6.66634C14.6063 6.66634 14.9397 6.21967 14.793 5.79301C13.8797 3.19301 11.4063 1.33301 8.49967 1.33301C6.31967 1.33301 4.37967 2.38634 3.16634 4.00634V3.33301C3.16634 2.96634 2.86634 2.66634 2.49967 2.66634C2.13301 2.66634 1.83301 2.96634 1.83301 3.33301V5.99967C1.83301 6.36634 2.13301 6.66634 2.49967 6.66634H5.16634C5.53301 6.66634 5.83301 6.36634 5.83301 5.99967ZM11.1663 9.99967C11.1663 10.3663 11.4663 10.6663 11.833 10.6663H13.1063C12.1863 12.2597 10.4663 13.333 8.49967 13.333C6.17301 13.333 4.19967 11.8397 3.47301 9.75968C3.42441 9.63321 3.33837 9.5246 3.22639 9.44835C3.1144 9.37211 2.98181 9.33187 2.84634 9.33301C2.39301 9.33301 2.05967 9.77968 2.20634 10.2063C3.11967 12.8063 5.59301 14.6663 8.49967 14.6663C10.6797 14.6663 12.6197 13.613 13.833 11.993V12.6663C13.833 13.033 14.133 13.333 14.4997 13.333C14.8663 13.333 15.1663 13.033 15.1663 12.6663V9.99967C15.1663 9.63301 14.8663 9.33301 14.4997 9.33301H11.833C11.4663 9.33301 11.1663 9.63301 11.1663 9.99967Z" fill="white"/>
</svg>
