<svg width="17" height="21" viewBox="0 0 17 21" fill="none" xmlns="http://www.w3.org/2000/svg">
<path d="M15.6872 1.67388H11.4091V1.63177C11.4091 0.831774 10.7674 0.200195 9.95455 0.200195H7.04545C6.23262 0.200195 5.59091 0.831774 5.59091 1.63177V1.67388H1.31283C0.863636 1.67388 0.5 2.03177 0.5 2.47388V3.27388C0.5 3.71598 0.863636 4.07388 1.31283 4.07388H15.6872C16.1364 4.07388 16.5 3.71598 16.5 3.27388V2.47388C16.5 2.03177 16.1364 1.67388 15.6872 1.67388Z" fill="#FFFF"/>
<path d="M14.6172 5.16895H2.38195C2.14665 5.16895 1.97553 5.35842 1.99692 5.59L2.59585 17.7795C2.66002 19.1268 3.79371 20.2005 5.1627 20.2005H11.8151C13.1841 20.2005 14.3178 19.1479 14.3819 17.7795L14.9809 5.59C15.0237 5.37947 14.8311 5.16895 14.6172 5.16895ZM7.17339 16.9374C7.17339 17.3163 6.87393 17.6111 6.4889 17.6111C6.10387 17.6111 5.80441 17.3163 5.80441 16.9374V8.45316C5.80441 8.07421 6.10387 7.77947 6.4889 7.77947C6.87393 7.77947 7.17339 8.07421 7.17339 8.45316V16.9374ZM11.1948 16.9374C11.1948 17.3163 10.8953 17.6111 10.5103 17.6111C10.1253 17.6111 9.8258 17.3163 9.8258 16.9374V8.45316C9.8258 8.07421 10.1253 7.77947 10.5103 7.77947C10.8953 7.77947 11.1948 8.07421 11.1948 8.45316V16.9374Z" fill="#FFFF"/>
</svg>
