<svg width="18" height="16" viewBox="0 0 18 16" fill="none" xmlns="http://www.w3.org/2000/svg">
<path d="M15.202 1.17843C15.5131 0.868295 15.927 0.696842 16.3565 0.700245C16.7859 0.703648 17.1973 0.881641 17.5038 1.19667C17.8104 1.51169 17.9881 1.93911 17.9994 2.38872C18.0108 2.83834 17.8549 3.27499 17.5647 3.60654L8.75442 15.1459C8.60293 15.3168 8.42008 15.4539 8.21682 15.5491C8.01356 15.6443 7.79406 15.6956 7.57144 15.6999C7.34882 15.7042 7.12766 15.6615 6.92117 15.5742C6.71469 15.487 6.52712 15.357 6.36969 15.1921L0.527089 9.07327C0.364382 8.91449 0.233879 8.72302 0.143366 8.51027C0.0528517 8.29752 0.00418102 8.06786 0.000257728 7.83499C-0.00366557 7.60211 0.037239 7.3708 0.12053 7.15484C0.203822 6.93888 0.327794 6.7427 0.485051 6.57801C0.642308 6.41331 0.829628 6.28348 1.03584 6.19625C1.24205 6.10902 1.46292 6.06618 1.68528 6.07029C1.90764 6.0744 2.12693 6.12537 2.33008 6.22016C2.53322 6.31496 2.71605 6.45163 2.86766 6.62203L7.4914 11.4621L15.1601 1.2293C15.1739 1.2115 15.1886 1.19451 15.2042 1.17843H15.202Z" fill="#248A3D"/>
</svg>
