<svg width="18" height="18" viewBox="0 0 18 18" fill="none" xmlns="http://www.w3.org/2000/svg">
    <path d="M17.3327 2.53337L15.666 0.866699C14.7077 1.40003 13.4993 1.70003 12.3327 1.70003C11.166 1.70003 9.94935 1.3917 8.99935 0.866699C8.04935 1.3917 6.83268 1.70003 5.66602 1.70003C4.49935 1.70003 3.29102 1.40003 2.33268 0.866699L0.666016 2.53337C0.666016 2.53337 2.33268 4.20003 2.33268 5.8667C2.33268 7.53337 0.666016 10.8667 0.666016 12.5334C0.666016 15.8667 8.99935 17.5334 8.99935 17.5334C8.99935 17.5334 17.3327 15.8667 17.3327 12.5334C17.3327 10.8667 15.666 7.53337 15.666 5.8667C15.666 4.20003 17.3327 2.53337 17.3327 2.53337ZM11.541 12.9084L8.97435 11.3584L6.41602 12.9084L7.09935 9.9917L4.83268 8.0417L7.81602 7.78337L8.97435 5.03337L10.141 7.77503L13.1244 8.03337L10.8577 9.98337L11.541 12.9084Z" fill="#2E3338"/>
</svg>
