<svg width="13" height="11" viewBox="0 0 13 11" fill="none" xmlns="http://www.w3.org/2000/svg">
<path d="M12.6752 2.53558C12.5476 2.4173 12.3925 2.34123 12.2278 2.31605C12.0631 2.29087 11.8953 2.31759 11.7437 2.39317L8.92115 3.78636L7.2812 0.504616C7.20281 0.351401 7.08925 0.223983 6.95207 0.135341C6.81489 0.0466992 6.65899 0 6.50026 0C6.34154 0 6.18564 0.0466992 6.04846 0.135341C5.91128 0.223983 5.79772 0.351401 5.71933 0.504616L4.07938 3.78636L1.25687 2.39317C1.10487 2.3177 0.936886 2.29095 0.771905 2.31592C0.606923 2.34089 0.451525 2.4166 0.323277 2.53449C0.19503 2.65237 0.0990471 2.80773 0.0461802 2.983C-0.00668679 3.15827 -0.0143298 3.34646 0.0241151 3.5263L1.44095 10.2322C1.46804 10.362 1.51859 10.4844 1.58955 10.5919C1.6605 10.6994 1.75037 10.7898 1.85373 10.8576C1.99365 10.9506 2.15363 10.9998 2.31671 11C2.39598 10.9998 2.47484 10.9873 2.55098 10.9628C5.13354 10.1703 7.86142 10.1703 10.444 10.9628C10.6798 11.0317 10.9305 10.9938 11.1412 10.8576C11.2452 10.7906 11.3356 10.7005 11.4066 10.5929C11.4777 10.4852 11.5278 10.3624 11.554 10.2322L12.9764 3.5263C13.0144 3.34641 13.0064 3.1583 12.9531 2.98324C12.8999 2.80817 12.8036 2.65311 12.6752 2.53558Z" fill="#2E3338"/>
</svg>
