<svg width="18" height="18" viewBox="0 0 18 18" fill="none" xmlns="http://www.w3.org/2000/svg">
    <path d="M7.54102 9.83329C7.54102 10.1096 7.43127 10.3745 7.23592 10.5699C7.04057 10.7652 6.77562 10.875 6.49935 10.875C6.22308 10.875 5.95813 10.7652 5.76278 10.5699C5.56743 10.3745 5.45768 10.1096 5.45768 9.83329C5.45768 9.55703 5.56743 9.29207 5.76278 9.09672C5.95813 8.90137 6.22308 8.79163 6.49935 8.79163C6.77562 8.79163 7.04057 8.90137 7.23592 9.09672C7.43127 9.29207 7.54102 9.55703 7.54102 9.83329ZM11.4993 8.79163C11.2231 8.79163 10.9581 8.90137 10.7628 9.09672C10.5674 9.29207 10.4577 9.55703 10.4577 9.83329C10.4577 10.1096 10.5674 10.3745 10.7628 10.5699C10.9581 10.7652 11.2231 10.875 11.4993 10.875C11.7756 10.875 12.0406 10.7652 12.2359 10.5699C12.4313 10.3745 12.541 10.1096 12.541 9.83329C12.541 9.55703 12.4313 9.29207 12.2359 9.09672C12.0406 8.90137 11.7756 8.79163 11.4993 8.79163ZM17.3327 8.99996C17.3327 13.6 13.5993 17.3333 8.99935 17.3333C4.39935 17.3333 0.666016 13.6 0.666016 8.99996C0.666016 4.39996 4.39935 0.666626 8.99935 0.666626C13.5993 0.666626 17.3327 4.39996 17.3327 8.99996ZM15.666 8.99996C15.666 8.34996 15.566 7.72496 15.391 7.13329C14.8077 7.25829 14.2077 7.33329 13.5827 7.33329C12.344 7.33356 11.1209 7.0577 10.0022 6.52577C8.8836 5.99384 7.89761 5.21923 7.11602 4.25829C6.67845 5.31599 6.02801 6.27239 5.20513 7.06803C4.38224 7.86368 3.40451 8.48157 2.33268 8.88329C2.34102 8.91663 2.33268 8.95829 2.33268 8.99996C2.33268 12.675 5.32435 15.6666 8.99935 15.6666C12.6743 15.6666 15.666 12.675 15.666 8.99996Z" fill="#2E3338"/>
</svg>
