<svg width="22" height="16" viewBox="0 0 22 16" fill="none" xmlns="http://www.w3.org/2000/svg">
    <path d="M18.4252 12.1629C18.4252 12.9096 18.1501 13.6301 17.6525 14.1868C17.155 14.7436 16.4697 15.0975 15.7277 15.181C14.9857 15.2644 14.239 15.0717 13.6301 14.6394C13.0213 14.2072 12.593 13.5658 12.4271 12.8378H9.57567C9.40974 13.5658 8.98145 14.2072 8.37259 14.6394C7.76374 15.0716 7.01701 15.2644 6.27502 15.1809C5.53304 15.0974 4.84781 14.7435 4.35023 14.1868C3.85265 13.6301 3.57759 12.9096 3.57759 12.1629C3.57759 11.4163 3.85265 10.6958 4.35023 10.1391C4.84781 9.58236 5.53304 9.22847 6.27502 9.14498C7.01701 9.06149 7.76374 9.25427 8.37259 9.68648C8.98145 10.1187 9.40974 10.7601 9.57567 11.4881H12.4271C12.593 10.76 13.0213 10.1187 13.6301 9.68645C14.239 9.25422 14.9857 9.06144 15.7277 9.14493C16.4697 9.22842 17.155 9.58232 17.6525 10.139C18.1501 10.6958 18.4252 11.4163 18.4252 12.1629ZM21.1247 6.42638H18.7795L14.8229 0.774168C14.696 0.5946 14.5273 0.448542 14.3315 0.348547C14.1356 0.248552 13.9184 0.19761 13.6985 0.200099C13.4786 0.202589 13.2626 0.258435 13.0691 0.362838C12.8755 0.467242 12.7102 0.61708 12.5874 0.799476L11.0014 3.1869L9.41538 0.799476C9.29253 0.61708 9.12723 0.467242 8.93368 0.362838C8.74014 0.258435 8.52413 0.202589 8.30424 0.200099C8.08434 0.19761 7.86713 0.248552 7.67127 0.348547C7.47541 0.448542 7.30675 0.5946 7.17981 0.774168L3.22326 6.42638H0.878016C0.699023 6.42638 0.527362 6.49748 0.400796 6.62405C0.274229 6.75061 0.203125 6.92227 0.203125 7.10127C0.203125 7.28026 0.274229 7.45192 0.400796 7.57849C0.527362 7.70505 0.699023 7.77616 0.878016 7.77616H21.1247C21.3037 7.77616 21.4754 7.70505 21.602 7.57849C21.7285 7.45192 21.7996 7.28026 21.7996 7.10127C21.7996 6.92227 21.7285 6.75061 21.602 6.62405C21.4754 6.49748 21.3037 6.42638 21.1247 6.42638Z" fill="#2E3338"/>
</svg>
