<svg width="22" height="18" viewBox="0 0 22 18" fill="none" xmlns="http://www.w3.org/2000/svg">
<path d="M20.1904 8.13386C20.6703 8.7788 20.6703 9.64947 20.1904 10.2934C18.6788 12.3208 15.052 16.4952 10.8178 16.4952C6.58359 16.4952 2.95685 12.3208 1.44521 10.2934C1.21171 9.98456 1.08496 9.60466 1.08496 9.21361C1.08496 8.82257 1.21171 8.44267 1.44521 8.13386C2.95685 6.10645 6.58359 1.93201 10.8178 1.93201C15.052 1.93201 18.6788 6.10645 20.1904 8.13386V8.13386Z" stroke="#0040DD" stroke-width="2" stroke-linecap="round" stroke-linejoin="round"/>
<path d="M10.8177 12.3343C12.4953 12.3343 13.8552 10.9371 13.8552 9.21358C13.8552 7.49008 12.4953 6.0929 10.8177 6.0929C9.1402 6.0929 7.78027 7.49008 7.78027 9.21358C7.78027 10.9371 9.1402 12.3343 10.8177 12.3343Z" stroke="#0040DD" stroke-width="2" stroke-linecap="round" stroke-linejoin="round"/>
</svg>
