<svg width="11" height="14" viewBox="0 0 11 14" fill="none" xmlns="http://www.w3.org/2000/svg">
<path d="M9.6 5.75H8.25V3.95C8.25 1.77725 7.24875 0.5 5.25 0.5C3.2505 0.5 2.25 1.77725 2.25 3.95V5.75H0.75C0.33525 5.75 0 6.2345 0 6.64925V12.5C0 12.9118 0.321 13.3542 0.71325 13.4803L1.611 13.7705C2.08718 13.9093 2.57919 13.9864 3.075 14H7.425C7.92063 13.9865 8.41244 13.9092 8.88825 13.7698L9.78525 13.4795C10.1783 13.3543 10.5 12.9118 10.5 12.5V6.64925C10.5 6.2345 10.014 5.75 9.6 5.75ZM6.75 5.75H3.75V3.64925C3.75 2.5655 4.34775 2 5.25 2C6.15225 2 6.75 2.5655 6.75 3.64925V5.75Z" fill="#2E3338"/>
</svg>
