<svg width="14" height="14" viewBox="0 0 14 14" fill="none" xmlns="http://www.w3.org/2000/svg">
    <path d="M13.1669 2.81723L10.8836 0.533898C10.5856 0.253978 10.1951 0.0933642 9.78636 0.0826085C9.37764 0.0718529 8.97923 0.211706 8.66691 0.475565L1.16691 7.97556C0.897552 8.2472 0.729834 8.60323 0.691914 8.9839L0.333581 12.4589C0.322355 12.581 0.338193 12.704 0.379965 12.8192C0.421737 12.9345 0.488416 13.0391 0.575247 13.1256C0.653114 13.2028 0.745461 13.2639 0.846992 13.3054C0.948523 13.3468 1.05724 13.3679 1.16691 13.3672H1.24191L4.71691 13.0506C5.09758 13.0126 5.45361 12.8449 5.72525 12.5756L13.2252 5.07557C13.5163 4.76804 13.6737 4.35766 13.6627 3.93434C13.6518 3.51103 13.4735 3.10932 13.1669 2.81723ZM4.56691 11.3839L2.06691 11.6172L2.29191 9.11723L7.00025 4.46723L9.25025 6.71723L4.56691 11.3839ZM10.3336 5.60057L8.10025 3.36723L9.72525 1.70057L12.0002 3.97556L10.3336 5.60057Z" fill="#8944AB"/>
</svg>
