<svg width="12" height="14" viewBox="0 0 12 14" fill="none" xmlns="http://www.w3.org/2000/svg">
<path d="M10.35 5.5H9V3.7C9 1.52725 7.99875 0.25 6 0.25C4.0005 0.25 3 1.52725 3 3.7V4H4.5V3.39925C4.5 2.3155 5.09775 1.75 6 1.75C6.90225 1.75 7.5 2.3155 7.5 3.39925V5.5H1.5C1.08525 5.5 0.75 5.9845 0.75 6.39925V12.25C0.75 12.6617 1.071 13.1042 1.46325 13.2302L2.361 13.5205C2.83718 13.6593 3.32919 13.7364 3.825 13.75H8.175C8.67063 13.7365 9.16244 13.6592 9.63825 13.5198L10.5353 13.2295C10.9283 13.1042 11.25 12.6617 11.25 12.25V6.39925C11.25 5.9845 10.764 5.5 10.35 5.5Z" fill="#0040DD"/>
</svg>
