<svg width="14" height="17" viewBox="0 0 14 17" fill="none" xmlns="http://www.w3.org/2000/svg">
<path d="M2.4 7.00016H3.99V12.0002C3.99 12.5502 4.44 13.0002 4.99 13.0002H8.99C9.54 13.0002 9.99 12.5502 9.99 12.0002V7.00016H11.58C12.47 7.00016 12.92 5.92016 12.29 5.29016L7.7 0.700159C7.60749 0.607455 7.4976 0.533908 7.37662 0.483726C7.25565 0.433545 7.12597 0.407715 6.995 0.407715C6.86403 0.407715 6.73435 0.433545 6.61338 0.483726C6.4924 0.533908 6.38251 0.607455 6.29 0.700159L1.7 5.29016C1.07 5.92016 1.51 7.00016 2.4 7.00016ZM0 16.0002C0 16.5502 0.45 17.0002 1 17.0002H13C13.55 17.0002 14 16.5502 14 16.0002C14 15.4502 13.55 15.0002 13 15.0002H1C0.45 15.0002 0 15.4502 0 16.0002Z" fill="#0040DD"/>
</svg>
